HIERARCHY
ROOT Hips
{
	OFFSET 0.000000 97.167313 0.000000
	CHANNELS 6 Xposition Yposition Zposition Xrotation Yrotation Zrotation
	JOINT Spine
	{
		OFFSET 0.000000 13.784798 0.064400
		CHANNELS 3 Xrotation Yrotation Zrotation
		JOINT Spine1
		{
			OFFSET 0.000000 12.037903 0.404700
			CHANNELS 3 Xrotation Yrotation Zrotation
			JOINT Spine2
			{
				OFFSET 0.000000 17.795601 0.420200
				CHANNELS 3 Xrotation Yrotation Zrotation
				JOINT Neck
				{
					OFFSET 0.000000 39.131302 11.954600
					CHANNELS 3 Xrotation Yrotation Zrotation
					JOINT Head
					{
						OFFSET 0.000000 14.456192 15.627699
						CHANNELS 3 Xrotation Yrotation Zrotation
						JOINT HeadTop_End
						{
							OFFSET 0.000000 15.703506 7.603401
							CHANNELS 3 Xrotation Yrotation Zrotation
							End Site
							{
								OFFSET 0.000000 17.447403 0.000000
							}
						}
					}
				}
				JOINT LeftShoulder
				{
					OFFSET 17.399500 24.608795 1.168800
					CHANNELS 3 Xrotation Yrotation Zrotation
					JOINT LeftArm
					{
						OFFSET 18.980635 5.765305 1.818600
						CHANNELS 3 Xrotation Yrotation Zrotation
						JOINT LeftForeArm
						{
							OFFSET 49.290169 0.000000 0.000000
							CHANNELS 3 Xrotation Yrotation Zrotation
							JOINT LeftHand
							{
								OFFSET 31.562012 0.000000 0.000000
								CHANNELS 3 Xrotation Yrotation Zrotation
								JOINT LeftHandThumb1
								{
									OFFSET 6.133995 -4.388519 7.076070
									CHANNELS 3 Xrotation Yrotation Zrotation
									JOINT LeftHandThumb2
									{
										OFFSET 6.037666 -3.485840 3.485847
										CHANNELS 3 Xrotation Yrotation Zrotation
										JOINT LeftHandThumb3
										{
											OFFSET 6.496506 -3.750763 3.750761
											CHANNELS 3 Xrotation Yrotation Zrotation
											JOINT LeftHandThumb4
											{
												OFFSET 5.616882 -3.242905 3.242910
												CHANNELS 3 Xrotation Yrotation Zrotation
												End Site
												{
													OFFSET -1.254608 7.132141 0.375429
												}
											}
										}
									}
								}
								JOINT LeftHandPinky1
								{
									OFFSET 18.920792 -0.453171 -11.426712
									CHANNELS 3 Xrotation Yrotation Zrotation
									JOINT LeftHandPinky2
									{
										OFFSET 4.919586 0.000000 0.000000
										CHANNELS 3 Xrotation Yrotation Zrotation
										JOINT LeftHandPinky3
										{
											OFFSET 5.233047 0.000000 0.000000
											CHANNELS 3 Xrotation Yrotation Zrotation
											JOINT LeftHandPinky4
											{
												OFFSET 5.571716 0.000000 0.000000
												CHANNELS 3 Xrotation Yrotation Zrotation
												End Site
												{
													OFFSET -3.459808 4.342407 -0.466164
												}
											}
										}
									}
								}
								JOINT LeftHandRing1
								{
									OFFSET 22.726120 -0.094986 -6.500475
									CHANNELS 3 Xrotation Yrotation Zrotation
									JOINT LeftHandRing2
									{
										OFFSET 6.408615 0.000000 0.000000
										CHANNELS 3 Xrotation Yrotation Zrotation
										JOINT LeftHandRing3
										{
											OFFSET 6.150223 0.000000 0.000000
											CHANNELS 3 Xrotation Yrotation Zrotation
											JOINT LeftHandRing4
											{
												OFFSET 6.145386 0.000000 0.000000
												CHANNELS 3 Xrotation Yrotation Zrotation
												End Site
												{
													OFFSET -3.671402 4.923981 -0.202372
												}
											}
										}
									}
								}
								JOINT LeftHandMiddle1
								{
									OFFSET 23.373947 0.000000 0.000001
									CHANNELS 3 Xrotation Yrotation Zrotation
									JOINT LeftHandMiddle2
									{
										OFFSET 6.996567 0.000000 0.000000
										CHANNELS 3 Xrotation Yrotation Zrotation
										JOINT LeftHandMiddle3
										{
											OFFSET 7.015945 0.000000 0.000000
											CHANNELS 3 Xrotation Yrotation Zrotation
											JOINT LeftHandMiddle4
											{
												OFFSET 7.721573 0.000000 0.000000
												CHANNELS 3 Xrotation Yrotation Zrotation
												End Site
												{
													OFFSET -4.651108 6.158463 0.251582
												}
											}
										}
									}
								}
								JOINT LeftHandIndex1
								{
									OFFSET 21.310577 -0.490082 6.209344
									CHANNELS 3 Xrotation Yrotation Zrotation
									JOINT LeftHandIndex2
									{
										OFFSET 7.536453 0.000000 0.000000
										CHANNELS 3 Xrotation Yrotation Zrotation
										JOINT LeftHandIndex3
										{
											OFFSET 7.512344 0.000000 0.000000
											CHANNELS 3 Xrotation Yrotation Zrotation
											JOINT LeftHandIndex4
											{
												OFFSET 10.212402 0.000000 0.000001
												CHANNELS 3 Xrotation Yrotation Zrotation
												End Site
												{
													OFFSET -5.180801 8.690506 1.388433
												}
											}
										}
									}
								}
							}
						}
					}
				}
				JOINT RightShoulder
				{
					OFFSET -17.399500 24.608795 1.168800
					CHANNELS 3 Xrotation Yrotation Zrotation
					JOINT RightArm
					{
						OFFSET -18.980635 5.765305 1.818600
						CHANNELS 3 Xrotation Yrotation Zrotation
						JOINT RightForeArm
						{
							OFFSET -49.290169 0.000000 0.000000
							CHANNELS 3 Xrotation Yrotation Zrotation
							JOINT RightHand
							{
								OFFSET -31.562012 0.000000 0.000000
								CHANNELS 3 Xrotation Yrotation Zrotation
								JOINT RightHandThumb1
								{
									OFFSET -6.133995 -4.388519 7.076070
									CHANNELS 3 Xrotation Yrotation Zrotation
									JOINT RightHandThumb2
									{
										OFFSET -6.037666 -3.485840 3.485847
										CHANNELS 3 Xrotation Yrotation Zrotation
										JOINT RightHandThumb3
										{
											OFFSET -6.496506 -3.750763 3.750761
											CHANNELS 3 Xrotation Yrotation Zrotation
											JOINT RightHandThumb4
											{
												OFFSET -5.616882 -3.242905 3.242910
												CHANNELS 3 Xrotation Yrotation Zrotation
												End Site
												{
													OFFSET 1.254608 7.132141 0.375429
												}
											}
										}
									}
								}
								JOINT RightHandIndex1
								{
									OFFSET -21.310577 -0.490082 6.209344
									CHANNELS 3 Xrotation Yrotation Zrotation
									JOINT RightHandIndex2
									{
										OFFSET -7.536453 0.000000 0.000000
										CHANNELS 3 Xrotation Yrotation Zrotation
										JOINT RightHandIndex3
										{
											OFFSET -7.512344 0.000000 0.000000
											CHANNELS 3 Xrotation Yrotation Zrotation
											JOINT RightHandIndex4
											{
												OFFSET -10.212402 0.000000 0.000001
												CHANNELS 3 Xrotation Yrotation Zrotation
												End Site
												{
													OFFSET 5.180801 8.690506 1.388433
												}
											}
										}
									}
								}
								JOINT RightHandMiddle1
								{
									OFFSET -23.373947 0.000000 0.000001
									CHANNELS 3 Xrotation Yrotation Zrotation
									JOINT RightHandMiddle2
									{
										OFFSET -6.996567 0.000000 0.000000
										CHANNELS 3 Xrotation Yrotation Zrotation
										JOINT RightHandMiddle3
										{
											OFFSET -7.015945 0.000000 0.000000
											CHANNELS 3 Xrotation Yrotation Zrotation
											JOINT RightHandMiddle4
											{
												OFFSET -7.721573 0.000000 0.000000
												CHANNELS 3 Xrotation Yrotation Zrotation
												End Site
												{
													OFFSET 4.651108 6.158463 0.251582
												}
											}
										}
									}
								}
								JOINT RightHandRing1
								{
									OFFSET -22.726120 -0.094986 -6.500475
									CHANNELS 3 Xrotation Yrotation Zrotation
									JOINT RightHandRing2
									{
										OFFSET -6.408615 0.000000 0.000000
										CHANNELS 3 Xrotation Yrotation Zrotation
										JOINT RightHandRing3
										{
											OFFSET -6.150223 0.000000 0.000000
											CHANNELS 3 Xrotation Yrotation Zrotation
											JOINT RightHandRing4
											{
												OFFSET -6.145386 0.000000 0.000000
												CHANNELS 3 Xrotation Yrotation Zrotation
												End Site
												{
													OFFSET 3.671402 4.923981 -0.202372
												}
											}
										}
									}
								}
								JOINT RightHandPinky1
								{
									OFFSET -18.920792 -0.453171 -11.426712
									CHANNELS 3 Xrotation Yrotation Zrotation
									JOINT RightHandPinky2
									{
										OFFSET -4.919586 0.000000 0.000000
										CHANNELS 3 Xrotation Yrotation Zrotation
										JOINT RightHandPinky3
										{
											OFFSET -5.233047 0.000000 0.000000
											CHANNELS 3 Xrotation Yrotation Zrotation
											JOINT RightHandPinky4
											{
												OFFSET -5.571716 0.000000 0.000000
												CHANNELS 3 Xrotation Yrotation Zrotation
												End Site
												{
													OFFSET 3.459808 4.342407 -0.466164
												}
											}
										}
									}
								}
							}
						}
					}
				}
			}
		}
	}
	JOINT LeftUpLeg
	{
		OFFSET 19.899099 -7.885101 -3.429500
		CHANNELS 3 Xrotation Yrotation Zrotation
		JOINT LeftLeg
		{
			OFFSET 1.745560 -36.997807 10.304700
			CHANNELS 3 Xrotation Yrotation Zrotation
			JOINT LeftFoot
			{
				OFFSET -1.745558 -29.803308 -13.615400
				CHANNELS 3 Xrotation Yrotation Zrotation
				JOINT LeftToeBase
				{
					OFFSET 1.181900 -18.539904 15.226099
					CHANNELS 3 Xrotation Yrotation Zrotation
					JOINT LeftToe_End
					{
						OFFSET -0.863701 1.402801 16.534700
						CHANNELS 3 Xrotation Yrotation Zrotation
						End Site
						{
							OFFSET 0.000000 16.616566 0.000000
						}
					}
				}
			}
		}
	}
	JOINT RightUpLeg
	{
		OFFSET -19.899099 -7.885101 -3.429500
		CHANNELS 3 Xrotation Yrotation Zrotation
		JOINT RightLeg
		{
			OFFSET -1.745560 -36.997807 10.304700
			CHANNELS 3 Xrotation Yrotation Zrotation
			JOINT RightFoot
			{
				OFFSET 1.745558 -29.803308 -13.615400
				CHANNELS 3 Xrotation Yrotation Zrotation
				JOINT RightToeBase
				{
					OFFSET -1.181900 -18.539904 15.226099
					CHANNELS 3 Xrotation Yrotation Zrotation
					JOINT RightToe_End
					{
						OFFSET 0.863701 1.402801 16.534700
						CHANNELS 3 Xrotation Yrotation Zrotation
						End Site
						{
							OFFSET 0.000000 16.616566 0.000000
						}
					}
				}
			}
		}
	}
}
MOTION
Frames: 4
Frame Time: 0.033333
-29.237667 86.973457 -89.726898 -4.587130 33.597967 -0.239901 13.579389 9.293732 8.589095 2.970461 2.119192 2.273465 2.999127 2.070142 2.217888 3.819394 -3.035273 0.562424 -15.837088 -33.146030 1.654599 -0.000001 0.000000 -0.000000 0.477483 -7.649180 -18.568836 -5.739025 6.951041 -64.671865 0.000011 -22.099191 0.000008 0.750422 6.434889 2.868935 4.335253 5.394163 6.015674 15.221606 9.120259 7.739201 -14.493716 -8.508994 12.011913 -0.000001 0.000001 0.000001 1.353390 6.825288 -64.265796 1.040447 3.334524 -34.649973 1.245834 3.613157 -38.038584 0.000001 0.000000 -0.000007 3.854477 7.991315 -56.770961 1.178067 3.525000 -36.949927 0.826444 3.001867 -30.779288 0.000001 0.000000 0.000005 0.844815 5.697274 -48.765993 0.701860 2.782367 -28.310530 0.382473 2.083910 -20.798124 -0.000002 0.000000 0.000007 -0.675381 0.238266 -34.226624 0.696634 2.772657 -28.202821 0.073101 0.923587 -9.051071 0.000000 -0.000002 -0.000001 -1.249633 20.224011 22.422060 -16.182607 13.222656 39.413808 0.000003 21.672079 0.000002 1.066933 19.995994 -6.952194 -1.141127 -1.770962 1.008685 16.592232 -22.042257 -5.392347 -14.775535 -4.785073 -14.277006 -0.000004 -0.000001 0.000002 0.462049 -0.696349 32.474602 1.782280 -3.665438 51.849540 0.722394 -2.493274 32.311750 -0.000004 -0.000001 -0.000001 -0.559911 -3.388559 41.911113 1.836609 -3.707379 52.694616 1.117345 -3.028283 40.497401 -0.000005 0.000004 -0.000004 -1.137342 -3.210043 47.101568 0.925071 -2.787745 36.708589 1.647649 -3.555769 49.712104 -0.000002 0.000002 -0.000001 -1.872028 -3.036194 40.861026 1.679326 -3.582370 50.221227 1.042069 -2.937980 39.051132 -0.000002 -0.000001 0.000000 -28.635614 1.717141 9.886626 46.936254 6.516787 -0.202213 -12.080524 11.755399 -5.300640 -4.650842 -0.000002 -0.000000 -0.000000 -0.000002 -0.000000 -24.339376 -8.784217 -4.477947 28.309546 -8.140759 6.073590 0.059630 -7.928548 -3.537623 -2.176594 0.000002 -0.000001 -0.000000 -0.000000 0.000000 
-30.218372 86.770195 -92.651047 -4.530182 33.516650 -0.571570 13.200657 9.480860 8.848878 2.895537 2.159869 2.321234 2.924946 2.108894 2.266682 3.723414 -3.024019 0.720564 -15.487614 -33.342941 2.825221 -0.000000 0.000000 0.000000 0.440433 -8.180789 -18.011713 -2.544111 12.980198 -64.124644 0.000008 -21.307258 0.000007 -3.604700 16.109032 2.428647 4.335251 5.394165 6.015678 15.221597 9.120258 7.739201 -14.071004 -6.208259 12.662625 0.000002 0.000001 0.000004 1.678511 7.089458 -67.789976 1.248044 3.615991 -38.073677 1.457685 3.868147 -41.284836 -0.000002 0.000000 -0.000006 4.170370 8.088906 -60.223479 1.385186 3.784158 -40.198406 0.989357 3.259472 -33.761420 -0.000000 -0.000000 0.000005 1.069808 6.000232 -52.016706 0.853623 3.046967 -31.294161 0.483858 2.333265 -23.428703 0.000003 0.000001 0.000004 -0.477583 0.545074 -37.192941 0.829456 3.006934 -30.836822 0.112729 1.144922 -11.246029 -0.000002 -0.000002 0.000001 -1.202705 19.840567 22.377310 -17.305432 16.707315 38.639190 -0.000022 24.170728 0.000027 0.885478 20.661498 -5.266507 -1.013688 -2.007773 -0.327865 16.592234 -22.042258 -5.392358 -15.113670 -2.404499 -13.759357 -0.000001 0.000000 0.000002 0.307384 -0.470936 28.985830 1.564057 -3.483321 48.350510 0.577909 -2.248860 28.820338 -0.000004 -0.000002 0.000003 -0.649960 -3.007001 38.199735 1.615220 -3.528090 49.187105 0.958603 -2.832142 37.393144 0.000001 0.000002 0.000001 -1.230984 -2.763296 43.215693 0.751135 -2.538093 32.966202 1.436578 -3.365835 46.216728 -0.000002 -0.000000 -0.000008 -2.003469 -2.615271 36.689543 1.447311 -3.376083 46.399391 0.858876 -2.696805 35.325243 0.000001 -0.000002 -0.000001 -24.913520 1.954665 11.322529 46.701675 6.580372 -0.238336 -12.696804 11.805640 -4.866574 -4.999230 0.000014 0.000006 -0.000000 -0.000001 0.000001 -26.322455 -8.694114 -4.821472 26.166552 -8.098369 6.317325 4.073652 -8.259331 -4.053154 -2.185141 0.000002 -0.000002 -0.000000 0.000001 0.000000 
-31.326847 86.733772 -95.834549 -4.370536 33.710324 -0.954978 12.829986 9.006341 8.840637 2.813528 2.021878 2.361381 2.841330 1.973303 2.307252 3.668168 -2.981447 0.917935 -15.245419 -32.759244 4.135106 -0.000000 -0.000000 -0.000001 0.364231 -9.273102 -17.000954 3.729575 16.012267 -63.290971 0.000011 -21.194135 -0.000014 -1.462984 21.139068 -3.759569 4.335252 5.394160 6.015677 15.221604 9.120256 7.739203 -13.686047 -3.901788 13.296570 0.000001 -0.000001 -0.000004 2.019114 7.330731 -71.317775 1.478100 3.891213 -41.586594 1.696212 4.123356 -44.707065 -0.000003 0.000001 -0.000000 4.498997 8.170933 -63.764925 1.619024 4.044069 -43.622980 1.181503 3.529546 -37.005825 -0.000001 -0.000000 0.000005 1.326556 6.303417 -55.445013 1.034070 3.325296 -34.540140 0.612331 2.609531 -26.407274 0.000001 -0.000005 0.000001 -0.247521 0.849040 -40.422446 0.992653 3.264409 -33.819487 0.171296 1.407685 -13.874609 -0.000001 0.000001 0.000001 -1.160794 18.777279 22.767041 -18.136538 21.083759 37.760752 -0.000013 26.675406 0.000009 0.642843 21.179327 -2.755887 -0.863535 -2.272547 -1.755909 16.592235 -22.042262 -5.392362 -15.516078 0.128285 -13.192636 -0.000001 -0.000001 -0.000000 0.156359 -0.203158 25.266584 1.344061 -3.274802 44.619304 0.440515 -1.978918 25.097035 0.000002 -0.000003 -0.000001 -0.713596 -2.610433 34.413095 1.391678 -3.322296 45.446877 0.793047 -2.601535 33.901306 0.000001 0.000001 -0.000008 -1.289881 -2.317699 39.411701 0.590799 -2.272118 29.147276 1.224699 -3.149479 42.489487 -0.000001 0.000001 -0.000003 -2.102321 -2.206647 32.781940 1.233912 -3.159512 42.657339 0.688475 -2.438888 31.523154 -0.000002 -0.000000 0.000006 -21.001677 2.391398 12.595967 45.115507 7.290908 -0.243728 -13.450896 11.314569 -4.621105 -5.739566 0.000009 -0.000005 -0.000000 -0.000001 0.000001 -27.855639 -8.522279 -5.209692 22.692936 -8.083947 6.773842 8.851228 -9.085142 -4.661431 -2.188214 0.000000 0.000001 -0.000000 0.000001 0.000000 
-32.449806 86.200722 -99.143890 -3.645728 33.957406 -1.831434 12.440585 8.155668 8.715678 2.777119 1.783723 2.395698 2.801203 1.738035 2.349615 3.389231 -2.816663 1.182387 -14.728208 -31.331556 5.676288 -0.000000 -0.000000 -0.000000 0.309215 -10.360907 -15.822690 11.127194 17.113575 -62.918227 -0.000001 -21.081691 0.000007 7.394883 19.247939 -12.498338 4.335249 5.394158 6.015675 15.221604 9.120254 7.739201 -13.345639 -1.647651 13.901622 0.000001 0.000005 -0.000002 2.364676 7.543137 -74.761372 1.724705 4.151857 -45.101740 1.956319 4.369821 -48.218472 -0.000004 -0.000002 -0.000008 4.831375 8.234514 -67.307402 1.874605 4.295613 -47.136836 1.400242 3.801854 -40.426039 -0.000003 -0.000003 0.000005 1.609710 6.595966 -58.964115 1.241007 3.607007 -37.961959 0.768161 2.901936 -29.647597 0.000002 -0.000001 0.000004 0.008781 1.135202 -43.829372 1.185117 3.534340 -37.064483 0.252044 1.701497 -16.850560 0.000002 0.000001 0.000001 -1.097773 17.468894 23.214319 -19.168989 25.616655 37.126917 0.000017 29.115181 0.000011 1.125364 21.669380 -0.822812 -0.695635 -2.556320 -3.215649 16.592227 -22.042260 -5.392347 -15.972594 2.705801 -12.594859 0.000002 -0.000001 -0.000000 0.020084 0.098331 21.472443 1.134011 -3.047674 40.811890 0.318693 -1.694768 21.297293 -0.000001 0.000000 -0.000001 -0.747672 -2.217056 30.705624 1.177881 -3.097660 41.630259 0.632309 -2.344951 30.177709 0.000001 0.000000 -0.000008 -1.315011 -1.894956 35.847660 0.451309 -2.001793 25.407774 1.023423 -2.914881 38.686103 -0.000001 -0.000002 -0.000000 -2.169337 -1.833221 29.311292 1.047214 -2.944276 39.150999 0.538535 -2.175798 27.800214 -0.000003 -0.000002 0.000004 -18.256723 2.688107 14.080996 44.648554 7.775784 -0.261575 -15.595284 11.182942 -5.467014 -5.738576 0.000052 -0.000002 -0.000000 0.000001 -0.000000 -30.119550 -8.278716 -5.620724 19.517312 -8.084806 7.422392 13.628944 -10.158179 -5.204308 -2.188215 0.000005 0.000001 -0.000000 -0.000000 0.000000 
